<svg xmlns="http://www.w3.org/2000/svg" width="361.23" height="135.2" viewBox="0 0 361.23 135.2">
  <g id="reachtv-logo" transform="translate(-55.7 -42.86)">
    <path id="Path_1" data-name="Path 1" d="M55.7,99.81v38.32H69.55v-23.4c0-5.72,4-8.46,11.29-8.46V93.33a17.24,17.24,0,0,0-12.12,4.81V94.4H61.11ZM114,111.74H94.63c1.16-5.31,4.73-8,9.79-8s8.38,3.07,9.54,8m12.53,8.63a36,36,0,0,0,.33-5A22.19,22.19,0,0,0,104.08,93.3a22.87,22.87,0,0,0-22.73,23c0,13,9.13,22.9,23.56,22.9,10.87,0,16.35-4.4,19.83-9l-10.37-6.89c-1.74,2.9-4.15,4.56-9,4.56-5.23,0-9.13-2.65-10.54-7.55Zm36.13-4.06c0,6.3-4.07,10.7-10.13,10.7-5.89,0-10-4.48-10-10.7s4.24-10.79,10-10.79c6.06,0,10.13,4.4,10.13,10.79m.49,21.82h12.78V94.4H163.11V99c-3.07-3.07-7.21-4.73-12.61-4.73-12.69,0-21.82,9-21.82,22.07s9.13,22.9,21.82,22.9c5.4,0,9.54-1.83,12.61-5.06Zm47.72-25.31,12.28-4.89c-1.75-6.39-9.05-14.52-21.41-14.52-13.36,0-23.23,10.12-23.23,23s10,22.82,23.31,22.82c12.45,0,19.83-8.22,21.58-14.36L211.08,120a9.09,9.09,0,0,1-9.05,7c-5.39,0-9.62-4.07-9.62-10.62s4.23-10.62,9.62-10.62c4.65,0,7.72,3,8.8,7.13" fill="#fff"/>
    <path id="Path_2" data-name="Path 2" d="M250.87,93.33a18.42,18.42,0,0,0-11.78,3.9V82.76H225.23v55.37h13.86V112.57c0-4,3.4-7,7.55-7a7,7,0,0,1,7.38,7.47V138.1h13.86V110.3c0-10-6.72-17-17-17" fill="#fff"/>
    <path id="Path_3" data-name="Path 3" d="M375.75,94.4l-9.38,30.12L357.08,94.4H342.81l15.51,43.73H374.5L390,94.4Zm-42.53,43.73h7.47v-12h-4.57c-3.9,0-6.14-2.24-6.14-6.47V106.19h10.46V94.4h-10V82.79H317v6.72c0,3.24-1.58,4.89-4.65,4.89h-3.48v11.79h7.3v15.1c0,10.12,5.73,16.84,17,16.84" fill="#fff"/>
    <path id="Path_4" data-name="Path 4" d="M281.87,42.87l13.98,13.97H394l13.97-13.98Z" fill="#fff"/>
    <path id="Path_5" data-name="Path 5" d="M281.87,56.84V168.96l13.98-13.98V56.84L281.88,42.86Z" fill="#f3f1ea"/>
    <path id="Path_6" data-name="Path 6" d="M416.93,178.06v-.02l-13.98-13.97v.01H304.8l-13.97,13.98Z" fill="#f3f1ea"/>
    <path id="Path_7" data-name="Path 7" d="M416.93,164.08V51.96L402.95,65.93l-.01,98.15,13.98,13.98Z" fill="#fff"/>
  </g>
</svg>
